<svg xmlns="http://www.w3.org/2000/svg">
<symbol id="bars" width="1em" height="1em" viewBox="0 0 20 16" fill="none">
<path opacity="0.6" d="M0.124103 1.33333C0.124103 0.596954 0.721057 0 1.45744 0H18.6667C19.403 0 20 0.596954 20 1.33333C20 2.06971 19.403 2.66667 18.6667 2.66667H1.45744C0.721056 2.66667 0.124103 2.06971 0.124103 1.33333ZM0 8C0 7.26362 0.596954 6.66667 1.33333 6.66667H18.6667C19.403 6.66667 20 7.26362 20 8C20 8.73638 19.403 9.33333 18.6667 9.33333H1.33333C0.596955 9.33333 0 8.73638 0 8ZM0 14.6667C0 13.9303 0.596953 13.3333 1.33333 13.3333H18.6667C19.403 13.3333 20 13.9303 20 14.6667C20 15.403 19.403 16 18.6667 16H1.33333C0.596953 16 0 15.403 0 14.6667Z" fill="#737373"/>
</symbol>
<symbol id="twitter" width="1em" height="1em" viewBox="0 0 41 42" fill="none">
<path d="M37.145 11.0757C35.9202 11.604 34.5873 11.9843 33.2144 12.1324C34.6398 11.2856 35.7072 9.94774 36.2164 8.36992C34.8788 9.16559 33.4136 9.72353 31.8855 10.019C31.2469 9.33625 30.4745 8.79235 29.6165 8.42118C28.7585 8.05001 27.8332 7.85952 26.8983 7.86159C23.1159 7.86159 20.0739 10.9276 20.0739 14.69C20.0739 15.2184 20.1379 15.7467 20.242 16.255C14.5783 15.9588 9.52705 13.2531 6.16887 9.1104C5.55697 10.1555 5.23632 11.3456 5.24026 12.5566C5.24026 14.9262 6.44505 17.0155 8.28224 18.2443C7.19955 18.2017 6.14222 17.9041 5.19624 17.3758V17.4598C5.19624 20.778 7.54176 23.5278 10.6678 24.1602C10.0808 24.3126 9.47704 24.3906 8.87062 24.3923C8.42633 24.3923 8.00606 24.3483 7.58178 24.2882C8.44634 26.994 10.964 28.9593 13.9619 29.0233C11.6164 30.8605 8.67849 31.9412 5.48843 31.9412C4.91605 31.9412 4.38771 31.9212 3.83936 31.8572C6.86532 33.7984 10.4556 34.9191 14.3222 34.9191C26.8743 34.9191 33.7428 24.5204 33.7428 15.4945C33.7428 15.1983 33.7428 14.9022 33.7227 14.606C35.0516 13.6333 36.2164 12.4286 37.145 11.0757Z" fill="#FA4A0C"/>
</symbol>
<symbol id="facebook" width="1em" height="1em" viewBox="0 0 42 42" fill="none">
<path d="M36.2106 5.37988H6.75153C6.04307 5.37988 5.4707 5.95225 5.4707 6.66071V36.1198C5.4707 36.8283 6.04307 37.4007 6.75153 37.4007H36.2106C36.9191 37.4007 37.4915 36.8283 37.4915 36.1198V6.66071C37.4915 5.95225 36.9191 5.37988 36.2106 5.37988ZM32.5122 14.7259H29.9546C27.9493 14.7259 27.561 15.6786 27.561 17.0795V20.1655H32.3481L31.7237 24.9966H27.561V37.4007H22.5698V25.0006H18.3951V20.1655H22.5698V16.6032C22.5698 12.4685 25.0954 10.215 28.7858 10.215C30.555 10.215 32.072 10.3471 32.5163 10.4071V14.7259H32.5122Z" fill="#FA4A0C"/>
</symbol>
<symbol id="instagram" width="1em" height="1em" viewBox="0 0 26 26" fill="none">
<path d="M12.9999 9.6154C11.1362 9.6154 9.61531 11.1363 9.61531 13C9.61531 14.8636 11.1362 16.3845 12.9999 16.3845C14.8635 16.3845 16.3844 14.8636 16.3844 13C16.3844 11.1363 14.8635 9.6154 12.9999 9.6154ZM23.151 13C23.151 11.5984 23.1637 10.2095 23.085 8.81052C23.0063 7.18552 22.6356 5.74333 21.4473 4.55505C20.2565 3.36423 18.8169 2.99607 17.1919 2.91736C15.7903 2.83865 14.4014 2.85134 13.0024 2.85134C11.6009 2.85134 10.212 2.83865 8.81296 2.91736C7.18796 2.99607 5.74577 3.36677 4.55749 4.55505C3.36667 5.74587 2.99851 7.18552 2.9198 8.81052C2.84109 10.2121 2.85378 11.6009 2.85378 13C2.85378 14.399 2.84109 15.7904 2.9198 17.1894C2.99851 18.8144 3.36921 20.2566 4.55749 21.4449C5.74831 22.6357 7.18796 23.0039 8.81296 23.0826C10.2145 23.1613 11.6034 23.1486 13.0024 23.1486C14.404 23.1486 15.7928 23.1613 17.1919 23.0826C18.8169 23.0039 20.2591 22.6332 21.4473 21.4449C22.6382 20.2541 23.0063 18.8144 23.085 17.1894C23.1663 15.7904 23.151 14.4015 23.151 13V13ZM12.9999 18.2076C10.118 18.2076 7.79226 15.8818 7.79226 13C7.79226 10.1181 10.118 7.79236 12.9999 7.79236C15.8817 7.79236 18.2075 10.1181 18.2075 13C18.2075 15.8818 15.8817 18.2076 12.9999 18.2076ZM18.4208 8.79529C17.7479 8.79529 17.2046 8.25193 17.2046 7.57907C17.2046 6.90622 17.7479 6.36286 18.4208 6.36286C19.0936 6.36286 19.637 6.90622 19.637 7.57907C19.6372 7.73885 19.6059 7.89709 19.5448 8.04474C19.4838 8.19238 19.3942 8.32654 19.2812 8.43951C19.1682 8.55249 19.0341 8.64207 18.8864 8.70312C18.7388 8.76417 18.5805 8.79549 18.4208 8.79529V8.79529Z" fill="#FA4A0C"/>
</symbol>
<symbol id="times" width="1em" height="1em" viewBox="0 0 32 32" fill="none">
<path d="M7.21903 5.781L5.78003 7.22L14.563 16L5.78003 24.781L7.22003 26.22L16 17.437L24.781 26.219L26.219 24.781L17.437 16L26.219 7.219L24.78 5.78L16 14.563L7.21903 5.781Z" fill="currentColor"/>
</symbol>
</svg>

